<svg width="33" height="39" xmlns="http://www.w3.org/2000/svg">
  <path fill="none" d="M-1-1h35v41H-1z"/>
  <g>
    <path stroke="null" stroke-width="null" stroke-opacity="null" d="M32.128 17.99c.037-.03.067-.158.07-.28 0-.07.03-.293.077-.588a59.602 59.602 0 0 0 .024-.144c.031-.19.068-.403.107-.62.155-.843.207-1.69.21-3.376.004-2.614-.137-3.334-.989-5.064a8.325 8.325 0 0 0-1.212-1.848c.414-1.22.404-3.11-.025-4.767-.353-1.36-.477-1.447-1.71-1.186-1.044.223-1.88.526-2.954 1.067a26.01 26.01 0 0 0-1.714.967 18.766 18.766 0 0 0-4.15-.939c-1.48-.167-5.107-.073-6.395.164a26.048 26.048 0 0 0-3.418.856 27.375 27.375 0 0 0-1.786-1.01C7.185.677 6.348.376 5.3.153 4.071-.11 3.944-.02 3.592 1.34c-.435 1.68-.438 3.6-.008 4.817.05.14.08.238.092.315-1.744 2.196-2.314 4.654-1.935 8.084.1.894.25 1.714.464 2.466.164.557.297.936.45 1.295l-.012.002c.777 1.783 1.912 3.09 3.516 4.107.98.624 2.552 1.265 3.344 1.366.218.026.85.157 1.406.287.558.131 1.648.327 2.421.44h.02c-.017.01-.03.016-.043.026-.938.487-1.547 1.245-1.957 2.44-.184.054-.414.13-.662.215-.885.301-1.23.363-2.127.37-.93.007-1.152-.034-1.708-.295-.808-.376-1.562-1.07-2.064-1.896-.838-1.383-2.288-2.36-3.497-2.36-1.033 0-1.229.418-.482 1.03 1.125.918 1.965 1.855 2.31 2.572l.665 1.38c.182.38.572.895.944 1.251.874.834 1.718 1.232 2.976 1.42.844.124 1.052.124 2.048-.004.48-.058.885-.127 1.25-.212v1.431c0 2.956-.037 3.907-.154 4.185-.22.53-.716 1.073-1.198 1.318-.48.244-.63.514-.427.761.112.134.328.158 1.053.11 1.376-.085 2.348-.593 2.844-1.49.16-.289.196-.868.246-3.88.054-3.27.077-3.585.29-4.052.128-.278.314-.58.418-.66.174-.145.186.14.186 4.05-.002 4.315-.045 4.836-.477 5.666-.097.19-.28.435-.41.553-.226.206-.322.733-.164.892.26.258 1.56-.147 2.27-.707 1.208-.957 1.352-1.749 1.362-7.467l.005-3.355.367.035.366.034.06 4.387c.07 4.94.08 5.012.92 5.966.477.54.957.837 1.74 1.07 1.045.315 1.36-.17.657-1.013-.765-.915-.802-1.265-.76-6.686.028-3.475.028-3.475.253-3.272.472.428.562 1.131.562 4.39 0 4.048.116 4.433 1.545 5.14.668.326.856.366 1.711.37.91.003.966-.01 1-.248.028-.193-.084-.323-.51-.583-.557-.343-.943-.78-1.186-1.334-.092-.212-.154-1.605-.196-4.473-.06-4.006-.074-4.188-.323-4.816-.337-.844-.85-1.51-1.502-1.952a2.158 2.158 0 0 0-.557-.27c.27-.028.53-.056.783-.093 2.632-.35 4.023-.64 5.14-1.073 2.362-.91 3.96-2.42 4.824-4.56.077-.19.154-.372.22-.518l.167-.323z"/>
  </g>
</svg>
