<svg xmlns="http://www.w3.org/2000/svg" width="21" height="35">
  <g class="currentLayer">
    <path d="M10.286 24.313c4.045-.031 6.922-1.905 8.629-5.62h.09v5.666c0 .423-.03 1.078-.09 1.968-.122.92-.447 1.912-.974 2.974-.53 1-1.383 1.85-2.56 2.553-1.163.765-2.786 1.163-4.87 1.194-2.01 0-3.707-.484-5.097-1.452-1.42-.952-2.25-2.498-2.49-4.637H1.156c.18 2.78 1.139 4.762 2.875 5.949 1.69 1.139 3.836 1.71 6.433 1.71 2.567 0 4.568-.445 6.003-1.336 1.419-.858 2.437-1.928 3.057-3.208.62-1.28.989-2.5 1.11-3.654.09-1.155.136-1.982.136-2.482V.565h-1.767v5.152h-.09c-.68-1.89-1.805-3.317-3.376-4.286C13.952.479 12.2 0 10.283 0c-3.339.066-5.875 1.26-7.61 3.587C.891 5.896 0 8.746 0 12.134c0 3.482.845 6.362 2.536 8.642 1.708 2.327 4.29 3.506 7.748 3.537h.002zM3.896 4.85c1.389-2.108 3.518-3.2 6.388-3.28 2.944.08 5.125 1.14 6.546 3.187 1.419 2.045 2.129 4.504 2.129 7.377s-.71 5.316-2.13 7.33c-1.42 2.14-3.6 3.232-6.545 3.279-2.778-.047-4.893-1.108-6.342-3.185-1.466-2.014-2.197-4.49-2.197-7.424 0-2.748.717-5.176 2.152-7.284z" stroke="null"/>
  </g>
</svg>
