<svg xmlns="http://www.w3.org/2000/svg" viewBox="0 0 100 100">
  <path d="M39.367 62.884c-2.096 1.882-6.121 5.649-12.822 5.649-7.904 0-15.518-6.928-15.518-18.013 0-14.203 9.102-18.784 16.09-18.784 10.08 0 12.287 6.082 15.035 14.512l3.668 11.548C49.484 68.996 56.357 78 76.174 78 90.379 78 100 73.614 100 62.068c0-9.354-5.271-14.203-15.121-16.514l-7.33-1.615c-5.041-1.155-6.529-3.234-6.529-6.699 0-3.926 3.092-6.234 8.133-6.234 5.498 0 8.477 2.079 8.936 7.043l11.453-1.385C98.625 26.271 91.523 22 79.84 22c-10.309 0-20.389 3.926-20.389 16.512 0 7.852 3.779 12.816 13.285 15.127l7.791 1.846c5.842 1.387 7.787 3.812 7.787 7.161 0 4.271-4.123 6.003-11.912 6.003-11.568 0-17.379-6.12-20.129-14.55l-3.781-11.545C47.684 27.543 42.008 22 26.773 22 13.188 22 0 32.738 0 50.981 0 68.533 12.662 78 25.971 78c9.625 0 14.514-3.383 16.9-5.117l-3.504-9.999z" />
</svg>
